# xmcd
#
# Track frame offsets:
#	150
#	10335
#	23477
#	39635
#	52941
#	64827
#	80223
#	94954
#	107103
#	122583
#
# Disc length: 1846 seconds
#
# Revision: 0
# Processed by: cddbd v1.4PL0 Copyright (c) Steve Scherf et al.
# Submitted via: dBpowerAMP V4.0
#
DISCID=7d07340a
DTITLE=Marvin Morrow - The Old Ship Is About To Sail
DYEAR=1900
DGENRE=Gospel
TTITLE0=Lord Remember Me
TTITLE1=I'll Rest On That Shore
TTITLE2=The Old Ship Is About To Sail
TTITLE3=The Light Of That City
TTITLE4=God Has Been Good To Me
TTITLE5=The Bible Is True After All
TTITLE6=I Bowed On My Knees And Cried Holy
TTITLE7=We've Got The Lord
TTITLE8=Paul's Ministry
TTITLE9=Do You Know The Man?
EXTD=J.B. JACOBS
EXTT0=
EXTT1=
EXTT2=
EXTT3=
EXTT4=
EXTT5=
EXTT6=
EXTT7=
EXTT8=
EXTT9=
PLAYORDER=
